<svg xmlns="http://www.w3.org/2000/svg" version="1.1" xmlns:xlink="http://www.w3.org/1999/xlink" xmlns:svgjs="http://svgjs.dev/svgjs" width="24px" height="24px"><svg xmlns="http://www.w3.org/2000/svg" enable-background="new 0 0 24 24" height="24px" viewBox="0 0 24 24" width="24px" fill="#e8eaed"><g><rect fill="none" height="24" width="24"></rect></g><g><path d="M12,3c-4.97,0-9,4.03-9,9v7c0,1.1,0.9,2,2,2h4v-8H5v-1c0-3.87,3.13-7,7-7s7,3.13,7,7v1h-4v8h4c1.1,0,2-0.9,2-2v-7 C21,7.03,16.97,3,12,3z M7,15v4H5v-4H7z M19,19h-2v-4h2V19z"></path></g></svg><style>@media (prefers-color-scheme: light) { :root { filter: contrast(1) brightness(0.1); } }
@media (prefers-color-scheme: dark) { :root { filter: contrast(0.3846153846153846) brightness(4.5); } }
</style></svg>